<?xml version="1.0" encoding="utf-8"?>
<!-- Generator: Adobe Illustrator 15.0.2, SVG Export Plug-In . SVG Version: 6.00 Build 0)  -->
<!DOCTYPE svg PUBLIC "-//W3C//DTD SVG 1.1//EN" "http://www.w3.org/Graphics/SVG/1.1/DTD/svg11.dtd">
<svg version="1.1" id="Layer_1" xmlns="http://www.w3.org/2000/svg" xmlns:xlink="http://www.w3.org/1999/xlink" x="0px" y="0px"
	 width="900px" height="300px" viewBox="0 0 900 300" enable-background="new 0 0 900 300" xml:space="preserve">
<g>
	<rect x="20.048" y="59.997" fill="none" width="848" height="220"/>
	<text transform="matrix(1 0 0 1 67.4668 99.6201)"><tspan x="0" y="0" fill="#2B85C4" font-family="'Roboto'" font-size="52">Helping launch the careers of the </tspan><tspan x="-35.166" y="67" fill="#2B85C4" font-family="'Roboto'" font-size="52">college-educated workforce through </tspan><tspan x="9.75" y="134" fill="#2B85C4" font-family="'Roboto'" font-size="52">innovative technology solutions. </tspan></text>
	<g>
		<g>
			<g>
				<path fill="#F7931E" d="M436.44,39.152c-3.315-5.816-6.631-11.631-9.946-17.447c-1.037,0.526-2.074,1.053-3.111,1.58
					c4.342,1.377,8.684,2.755,13.025,4.133c-0.251-0.275-0.502-0.55-0.753-0.825c-1.026,4.438-2.053,8.876-3.08,13.314
					c-0.34,1.47,3.557,0.861,3.866-0.475c1.026-4.438,2.053-8.876,3.079-13.314c0.118-0.508-0.371-0.704-0.753-0.825
					c-4.342-1.377-8.684-2.755-13.025-4.133c-0.588-0.187-3.748,0.463-3.111,1.58c3.315,5.816,6.631,11.631,9.946,17.447
					C433.33,41.508,437.052,40.224,436.44,39.152z"/>
			</g>
		</g>
		<g>
			<g>
				<path fill="#F7931E" d="M416.816,47.228c-2.423-4.25-4.846-8.5-7.269-12.75c-0.265,0.288-0.529,0.575-0.794,0.863
					c6.418-2.908,12.836-5.816,19.254-8.725c-1.023,0.057-2.046,0.115-3.069,0.172c1.406,2.466,2.813,4.933,4.219,7.399
					c0.701,1.229,0.79,1.831,1.362,1.431c-0.792,0.555-1.584,1.109-2.376,1.664c-4.919,3.444-9.838,6.888-14.757,10.333
					c-1.653,1.158,2.237,0.794,2.998,0.262c5.772-4.042,11.544-8.083,17.316-12.125c0.122-0.085,0.564-0.418,0.433-0.648
					c-1.777-3.117-3.554-6.233-5.331-9.35c-0.504-0.884-2.427-0.119-3.069,0.172c-6.418,2.908-12.836,5.816-19.254,8.725
					c-0.176,0.08-0.984,0.53-0.794,0.863c2.423,4.25,4.846,8.5,7.269,12.75C413.558,49.325,417.215,47.927,416.816,47.228z"/>
			</g>
		</g>
		<g>
			<g>
				<path fill="#F7931E" d="M405.721,37.996c-2.554,0.71-5.111,0.57-7.729,0.441c-0.92-0.045-1.965,0.212-2.732,0.732
					c-0.61,0.413-0.507,0.909,0.253,0.946c3.601,0.177,7.064,0.191,10.566-0.781c0.367-0.102,1.925-0.544,1.752-1.187
					C407.661,37.509,406.087,37.895,405.721,37.996L405.721,37.996z"/>
			</g>
		</g>
		<g>
			<g>
				<path fill="#F7931E" d="M402.722,42.615c-3.217,1.165-6.503,2.1-9.844,2.834c-0.579,0.127-1.878,0.719-1.662,1.526
					c0.226,0.842,1.622,0.618,2.202,0.491c3.692-0.811,7.299-1.895,10.852-3.182c0.507-0.183,1.613-0.958,1.017-1.602
					C404.67,42.016,403.431,42.358,402.722,42.615L402.722,42.615z"/>
			</g>
		</g>
		<g>
			<g>
				<path fill="#F7931E" d="M406.237,47.452c-1.51,2.952-3.677,5.801-4.66,8.988c-0.342,1.107,3.486,0.567,3.839-0.576
					c0.983-3.187,3.15-6.036,4.66-8.988c0.379-0.74-1.359-0.653-1.611-0.615C407.683,46.377,406.626,46.69,406.237,47.452
					L406.237,47.452z"/>
			</g>
		</g>
	</g>
	<g>
		<g>
			<path fill="#F7931E" d="M230.613,41.769c24.19,13.831,53.111,18.344,80.58,19.635c28.601,1.344,58.177-1.129,85.634-9.563
				c2.246-0.689,1.85-2.286-0.426-1.587c-26.282,8.073-54.322,10.333-81.698,9.338c-27.293-0.991-56.46-5.511-80.478-19.243
				C233.15,39.734,229.813,41.313,230.613,41.769L230.613,41.769z"/>
		</g>
	</g>
	<g>
		<g>
			<path fill="#F7931E" d="M791.235,54.085c22.758-5.096,45.256,2.849,57.453,23.137c8.679,14.434,11.648,35.503,1.264,49.872
				c-0.833,1.153,2.944,0.615,3.525-0.189c11.306-15.642,7.489-37.845-2.438-53.137c-13.319-20.521-37.326-26.196-60.18-21.079
				C788.554,53.206,788.962,54.594,791.235,54.085L791.235,54.085z"/>
		</g>
	</g>
	<g>
		<g>
			<path fill="#F7931E" d="M862.852,122.236c-4.235,0.911-8.3,2.746-12.262,4.464c1.019-0.073,2.038-0.146,3.057-0.219
				c-0.021-3.372-0.519-7.217-2.542-10.001c-0.718-0.988-4.213,0.555-3.863,1.035c2.022,2.784,2.521,6.629,2.542,10.001
				c0.005,0.851,2.776-0.097,3.057-0.219c2.978-1.291,6.138-2.851,9.32-3.536c0.661-0.142,1.93-0.371,2.255-1.09
				C864.717,122.005,863.076,122.188,862.852,122.236L862.852,122.236z"/>
		</g>
	</g>
	<g>
		<g>
			<path fill="#F7931E" d="M165.475,239.946c-1.704,1.805-4.555,0.785-6.148-0.722c-0.676-0.64-3.84,0.669-3.284,1.195
				c3.226,3.052,9.625,2.421,12.594-0.722C169.382,238.908,166.054,239.334,165.475,239.946L165.475,239.946z"/>
		</g>
	</g>
	<g>
		<g>
			<path fill="#F7931E" d="M165.622,242.34c-1.647,1.746-4.707,1.225-6.331-0.313c-1.038-0.982-4.337,0.399-3.212,1.465
				c3.294,3.119,9.279,3.006,12.411-0.313C169.965,241.617,166.577,241.328,165.622,242.34L165.622,242.34z"/>
		</g>
	</g>
	<g>
		<g>
			<path fill="#F7931E" d="M165.917,245.73c-1.718,1.82-4.67,1.203-6.351-0.387c-0.909-0.859-4.196,0.467-3.236,1.375
				c3.225,3.05,9.344,2.84,12.391-0.387C170.138,244.831,166.725,244.875,165.917,245.73L165.917,245.73z"/>
		</g>
	</g>
	<g>
		<g>
			<path fill="#F7931E" d="M145.866,190.516c1.232,4.005,2.415,8.563,5.163,11.834c1.134,1.351,4.806-0.192,3.537-1.703
				c-2.596-3.091-3.672-7.381-4.837-11.166C149.181,187.697,145.323,188.753,145.866,190.516L145.866,190.516z"/>
		</g>
	</g>
	<g>
		<g>
			<path fill="#F7931E" d="M159.6,186.178c-0.343,3.236,0.093,6.515-0.25,9.75c-0.197,1.852,3.728,1.233,3.896-0.359
				c0.343-3.236-0.093-6.515,0.25-9.75C163.693,183.967,159.769,184.585,159.6,186.178L159.6,186.178z"/>
		</g>
	</g>
	<g>
		<g>
			<path fill="#F7931E" d="M172.451,201.961c4.957-3.396,5.951-9.137,8.193-14.33c0.43-0.995-2.88-0.616-3.337,0.441
				c-1.883,4.359-2.731,10.103-6.912,12.967C168.53,202.316,171.434,202.658,172.451,201.961L172.451,201.961z"/>
		</g>
	</g>
	<path fill="none" stroke="#F7931E" stroke-width="2.5" stroke-miterlimit="10" d="M175.377,218.877
		c0,3.957-2.003,8.246-4.909,10.486c-2.365,1.824-1.762,6.154-2.365,6.859c-1.069,1.248-9.757,0.781-11.386,0.053
		c-0.883-0.395-0.316-5.395-2.231-6.912c-3.125-2.475-5.265-6.193-5.265-10.486c0-7.223,5.854-13.078,13.077-13.078
		S175.377,211.654,175.377,218.877z"/>
	<g>
		<g>
			<path fill="#F7931E" d="M51.496,137.005c-3.392,3.211-11.911,7.372-17.418,7.929c0.594,0.305,1.189,0.61,1.784,0.915
				c-1.342-2.938-2.684-5.875-4.026-8.812c-0.362,0.562-0.725,1.123-1.087,1.684c6.41-2.929,12.819-5.857,19.229-8.786
				c-0.941-0.212-1.882-0.424-2.824-0.636c1.342,2.938,2.684,5.875,4.026,8.813c0.792,1.733,4.664,0.6,3.911-1.048
				c-1.342-2.938-2.684-5.875-4.026-8.813c-0.5-1.094-1.852-1.08-2.824-0.636c-6.41,2.929-12.819,5.857-19.229,8.786
				c-0.515,0.235-1.4,1-1.087,1.684c1.342,2.938,2.684,5.875,4.026,8.812c0.322,0.706,1.018,0.993,1.784,0.915
				c7.042-0.712,15.906-4.782,21.039-9.642C56.547,136.489,52.756,135.811,51.496,137.005z"/>
		</g>
	</g>
	<g>
		<polygon fill="#FFFFFF" points="40.513,136.881 15.438,141.893 35.64,126.216 60.715,121.205 		"/>
		<g>
			<path fill="#F7931E" d="M40.834,135.732c-8.358,1.671-16.716,3.341-25.074,5.012c0.479,0.486,0.957,0.972,1.436,1.458
				c6.721-5.215,13.441-10.431,20.162-15.646c-1.389,1.078-2.776,0.957-1.302,0.663c0.884-0.177,1.769-0.354,2.653-0.53
				c2.889-0.577,5.777-1.155,8.666-1.732c4.34-0.867,8.68-1.735,13.02-2.602c-0.479-0.486-0.957-0.972-1.436-1.458
				c-6.734,5.226-13.468,10.451-20.202,15.677c-1.962,1.522,2.472,1.426,3.514,0.617c6.734-5.226,13.468-10.451,20.202-15.677
				c1.338-1.038-0.515-1.642-1.436-1.458c-4.34,0.868-8.68,1.735-13.02,2.603c-4.195,0.838-9.243,1.089-13.23,2.724
				c-3.529,1.447-6.872,5.157-9.841,7.461c-3.755,2.914-7.509,5.827-11.264,8.741c-1.338,1.038,0.515,1.642,1.436,1.458
				c8.358-1.671,16.716-3.341,25.074-5.012C42.196,137.63,43.88,135.124,40.834,135.732z"/>
		</g>
	</g>
	<g>
		<g>
			<path fill="#F7931E" d="M28.083,160.667c0.047-6.382,0.094-12.764,0.141-19.146c0.014-1.806,0.556-1.806-0.711-0.904
				c1.135-0.808,2.271-1.616,3.406-2.424c2.697-1.919,5.394-3.839,8.09-5.758c2.449-1.743-1.227-2.937-2.864-1.771
				c-2.697,1.919-5.394,3.838-8.091,5.758c-1.301,0.926-4.261,2.215-4.275,4.087c-0.05,6.857-0.101,13.714-0.151,20.571
				C23.612,163.246,28.07,162.465,28.083,160.667L28.083,160.667z"/>
		</g>
	</g>
	
		<ellipse transform="matrix(0.93 -0.3674 0.3674 0.93 -45.5142 23.1635)" fill="#F7931E" stroke="#F7931E" stroke-width="0.9241" stroke-miterlimit="10" cx="38.077" cy="131.116" rx="1.751" ry="1.144"/>
	<g>
		<g>
			<path fill="#F7931E" d="M683.124,187.353c-19.774,2.699-39.844,2.266-59.626,5.108c-16.889,2.426-34.495,6.778-44.821,21.435
				c-19.224,27.285,37.697,31.413,52.175,32.272c22.065,1.311,44.327,0.623,66.405,0.269c28.798-0.464,58.012-1.455,86.604-5.182
				c14.615-1.905,35.985-5.312,40.15-22.275c3.845-15.661-14.798-23.447-26.972-25.857c-12.944-2.563-26.299-3.438-39.438-4.355
				c-18.401-1.286-36.847-1.979-55.287-2.371c-18.341-0.392-36.697-0.435-55.035,0.096c-13.07,0.377-26.396,0.735-39.304,3.006
				c-1.82,0.32-3.197,2.592-0.531,2.123c13.99-2.461,28.441-2.717,42.605-3.067c19.782-0.488,39.584-0.304,59.363,0.227
				c19.003,0.508,38.012,1.373,56.959,2.947c13.17,1.095,27.35,1.791,39.698,6.926c8.063,3.353,15.411,9.95,14.341,19.36
				c-0.867,7.621-6.378,12.55-12.994,15.484c-11.753,5.212-25.41,6.153-38.067,7.17c-14.939,1.2-29.89,2.271-44.865,2.885
				c-27.088,1.109-54.359,1.501-81.466,0.873c-15.096-0.351-30.529-1.39-45.14-5.424c-7.184-1.983-17.444-5.592-19.027-13.984
				c-1.952-10.352,10.799-20.241,18.778-23.878c13.4-6.108,29.062-7.357,43.553-8.548c13.78-1.133,27.699-1.244,41.41-3.115
				C684.446,189.223,685.802,186.987,683.124,187.353L683.124,187.353z"/>
		</g>
	</g>
</g>
</svg>