<svg xmlns="http://www.w3.org/2000/svg" style="display: none;">
  
    <symbol id="icon-call" viewBox="0 0 512 512">
      <path d="m512 283c0-36-23-67-58-84 0 0 0 0 0 0 0-109-89-198-198-198-109 0-197 89-198 198-34 16-58 48-58 84 0 53 52 96 115 96l0-193c0 0 0 0 0 0 7-72 68-129 141-129 74 0 135 57 141 129 0 0 0 0 0 0l0 193c-8 23-28 61-79 73-7-13-21-23-37-23-22 0-41 19-41 41 0 23 19 41 41 41 19 0 35-13 40-31 45-9 71-35 86-57 11-18 17-35 19-47 50-11 86-49 86-93z"/>
    </symbol>
  
    <symbol id="icon-magnifying-glass" viewBox="0 0 512 512">
      <path d="m291 53c-91 0-164 74-164 164c0 31 8 60 23 85l-79 79l0 0c-8 8-14 20-14 33c0 25 21 45 46 45c12 0 24-5 32-14l0 1l82-82c22 11 47 17 74 17c90 0 164-73 164-164c0-90-74-164-164-164z m1 263c-57 0-103-45-103-102c0-56 46-102 103-102c56 0 102 46 102 102c0 57-46 102-102 102z"/>
    </symbol>
  
    <symbol id="icon-list" viewBox="0 0 512 512">
      <path d="m90 155l0 0c0 6 5 12 11 12l0 0l310 0l0 0c6 0 11-6 11-12l0 0l0-54c0-6-5-11-11-11l-310 0c-6 0-11 5-11 11c0 1 0 1 0 1z m321 63l-310 0c-6 0-11 5-11 11c0 0 0 1 0 1l0 53l0 0c0 6 5 11 11 11l0 0l310 0l0 0c6 0 11-5 11-11l0 0l0-54c0-6-5-11-11-11z m0 127l-310 0c-6 0-11 6-11 12c0 0 0 0 0 1l0 53l0 0c0 6 5 11 11 11l0 0l310 0l0 0c6 0 11-5 11-11l0 0l0-54c0-6-5-12-11-12z"/>
    </symbol>
  
    <symbol id="icon-chevron-up-circle" viewBox="0 0 512 512">
      <path d="m369 325l30-29c3-3 5-8 5-13c0-5-2-9-5-12l-130-130c-4-4-8-6-13-6c-5 0-9 2-13 6l-130 130c-3 3-5 7-5 12c0 5 2 10 5 13l30 29c3 4 7 6 12 6c5 0 10-2 13-6l88-87l88 87c3 4 8 6 13 6c5 0 9-2 12-6z m106-69c0 40-9 77-29 110c-20 34-46 60-80 80c-33 20-70 29-110 29c-40 0-77-9-110-29c-34-20-60-46-80-80c-20-33-29-70-29-110c0-40 9-77 29-110c20-34 46-60 80-80c33-20 70-29 110-29c40 0 77 9 110 29c34 20 60 46 80 80c20 33 29 70 29 110z"/>
    </symbol>
  
    <symbol id="icon-chevron-down-circle" viewBox="0 0 512 512">
      <path d="m269 371l130-130c3-3 5-7 5-12c0-5-2-10-5-13l-30-29c-3-4-7-6-12-6c-5 0-10 2-13 6l-88 87l-88-87c-3-4-8-6-13-6c-5 0-9 2-12 6l-30 29c-3 3-5 8-5 13c0 5 2 9 5 12l130 130c4 4 8 6 13 6c5 0 9-2 13-6z m206-115c0 40-9 77-29 110c-20 34-46 60-80 80c-33 20-70 29-110 29c-40 0-77-9-110-29c-34-20-60-46-80-80c-20-33-29-70-29-110c0-40 9-77 29-110c20-34 46-60 80-80c33-20 70-29 110-29c40 0 77 9 110 29c34 20 60 46 80 80c20 33 29 70 29 110z"/>
    </symbol>
  
    <symbol id="icon-caret-right" viewBox="0 0 512 512">
      <path d="m329 256c0 5-2 9-5 13l-128 128c-4 3-8 5-13 5c-5 0-9-2-13-5c-4-4-5-8-5-13l0-256c0-5 1-9 5-13c4-3 8-5 13-5c5 0 9 2 13 5l128 128c3 4 5 8 5 13z"/>
    </symbol>
  
    <symbol id="icon-plus" viewBox="0 0 512 512">
      <path d="m457 210l0 55c0 8-3 14-8 20c-5 5-12 8-19 8l-119 0l0 118c0 8-3 15-8 20c-5 5-12 8-20 8l-54 0c-8 0-15-3-20-8c-5-5-8-12-8-20l0-118l-119 0c-7 0-14-3-19-8c-5-6-8-12-8-20l0-55c0-7 3-14 8-19c5-5 12-8 19-8l119 0l0-119c0-8 3-14 8-19c5-6 12-8 20-8l54 0c8 0 15 2 20 8c5 5 8 11 8 19l0 119l119 0c7 0 14 3 19 8c5 5 8 12 8 19z"/>
    </symbol>
  
    <symbol id="icon-comment-discussion" viewBox="0 0 512 512">
      <path d="m160 256c0-32 0-96 0-96 0 0-80 0-96 0-16 0-32 16-32 32 0 16 0 144 0 160 0 16 16 32 32 32 16 0 32 0 32 0l0 96 97-96c0 0 81 0 96 0 15 0 31-16 31-32 0-16 0-32 0-32 0 0-64 0-96 0-32 0-64-32-64-64z m288-192c-16 0-208 0-224 0-16 0-32 16-32 32 0 16 0 144 0 160 0 16 16 32 32 32 16 0 95 0 95 0l97 96 0-96c0 0 16 0 32 0 16 0 32-16 32-32 0-16 0-144 0-160 0-16-16-32-32-32z"/>
    </symbol>
  
    <symbol id="icon-law" viewBox="0 0 512 512">
      <path d="m257 96c17 0 31-14 31-31 1-18-14-33-33-33-17 1-30 14-31 31 0 19 15 34 33 33z m232 192l-9 0-63-123c9-1 18-4 26-8 12-5 14-21 5-31l0 0c-6-6-14-8-22-4-7 3-17 6-26 6-28 0-41-32-144-32-103 0-115 32-143 32-10 0-20-3-27-6-7-3-16-2-21 4l-1 0c-9 10-6 25 6 31 8 4 17 7 26 8l-64 123-9 0c-4 0-7 4-6 8 5 32 46 56 95 56 50 0 90-24 96-56 0-4-3-8-7-8l-9 0-63-122c41-4 63-25 95-25l0 243c-17 0-32 15-32 32l-35 0c-14 0-29 15-29 32l256 0c0-17-14-32-35-32l-29 0c0-17-14-32-32-32l0-243c32 0 54 21 96 25l-64 122-9 0c-4 0-7 4-6 8 5 32 46 56 95 56 50 0 90-24 96-56 0-4-3-8-7-8z m-329 0l-96 0 48-90z m192 0l48-90 48 90z"/>
    </symbol>
  
    <symbol id="icon-key" viewBox="0 0 512 512">
      <path d="m452 122c7 39 2 76-14 110c-16 34-42 54-77 60c-22 4-44 4-66 1c0 0-61 99-61 99c0 0-36 6-36 6c0 0-53 85-53 85c-5 10-12 15-23 17c0 0-39 7-39 7c-4 1-8 1-12-2c-3-3-5-7-6-11c0 0-8-51-8-51c-3-10-1-19 6-28c0 0 132-198 132-198c-8-17-14-37-19-61c-6-37 3-68 27-96c24-28 56-45 95-52c36-7 69 1 100 23c30 22 48 53 54 91m-64 39c10-15 14-32 11-50c-3-18-12-32-27-42c-14-11-30-15-47-12c-17 4-30 13-41 28c-2 4-4 8-6 12c-1 4-1 7 0 10c1 3 2 6 2 8c1 3 3 5 7 9c4 3 7 6 9 8c3 1 6 4 11 8c6 4 10 6 12 8c2 2 6 5 11 9c6 4 10 7 12 8c3 1 6 3 10 6c4 3 7 4 10 4c2 0 5 0 8 0c4-1 7-2 10-5c2-2 5-5 8-9"/>
    </symbol>
  
    <symbol id="icon-check" viewBox="0 0 512 512">
      <path d="m212 435c-11 0-21-5-28-14c0 0-92-121-92-121c-6-8-8-17-6-27c1-9 5-17 13-23c7-6 16-9 26-7c10 1 18 6 24 14c0 0 60 79 60 79c0 0 152-243 152-243c5-8 13-13 22-15c9-2 18-1 27 4c8 5 13 13 15 22c3 9 1 18-4 27c0 0-179 287-179 287c-7 11-16 16-28 16c0 0-2 1-2 1"/>
    </symbol>
  
    <symbol id="icon-help" viewBox="0 0 512 512">
      <path d="m360 56c30 21 44 53 44 95c0 21-7 43-21 63c-4 7-19 20-45 41c0 0-24 15-24 15c-13 12-21 22-24 31c-2 6-4 13-4 23c0 4-3 7-8 7c0 0-66 0-66 0c-5 0-8-2-8-6c1-34 6-55 14-64c6-7 14-16 25-24c11-9 20-16 28-22c0 0 13-7 13-7c7-6 13-11 17-18c10-15 14-26 14-35c0-14-4-27-13-40c-9-13-25-19-47-19c-23 0-39 8-48 23c-10 14-14 30-14 47c0 0-85 0-85 0c2-55 21-95 58-119c24-14 52-21 85-21c44 0 81 10 109 30m-110 326c15 0 27 5 37 15c10 11 15 23 14 38c-1 16-6 28-16 38c-11 9-23 13-38 12c-15 0-28-5-38-14c-9-10-14-23-13-39c0-16 6-28 16-37c10-9 23-14 38-13"/>
    </symbol>
  
    <symbol id="icon-device-desktop" viewBox="0 0 512 512">
      <path d="m480 32c-16 0-432 0-448 0-16 0-32 16-32 32 0 16 0 272 0 288 0 16 16 32 32 32 16 0 160 0 160 0 0 0-96 32-96 64 0 16 16 32 32 32 16 0 240 0 256 0 16 0 32-16 32-32 0-32-96-64-96-64 0 0 144 0 160 0 16 0 32-16 32-32 0-16 0-272 0-288 0-16-16-32-32-32z m0 320l-448 0 0-288 448 0z m-32-256l-96 0c-192 32-271 150-288 192l0 32 384 0z"/>
    </symbol>
  
    <symbol id="icon-infinity" viewBox="0 0 512 512">
      <path d="m408 143c28 0 53 9 73 27c21 19 31 47 31 86c0 38-10 67-31 85c-20 18-45 28-73 28c-27 0-54-7-81-21c-27-13-51-32-71-54c-20 22-43 41-70 54c-27 14-54 21-81 21c-29 0-54-10-74-28c-21-18-31-47-31-85c0-39 10-67 31-86c20-18 45-27 74-27c27 0 54 7 81 20c27 14 50 32 70 54c20-22 43-40 71-54c27-13 54-20 81-20m-303 181c21 0 43-7 65-19c23-13 43-29 58-49c-15-20-34-36-57-49c-23-12-44-19-66-19c-38 0-58 23-58 68c0 45 20 68 58 68m303 0c38 0 58-23 58-68c0-45-20-68-58-68c-22 0-44 7-66 19c-23 13-42 29-57 49c15 20 34 36 57 49c22 12 44 19 66 19"/>
    </symbol>
  
    <symbol id="icon-chart-bar" viewBox="0 0 512 512">
      <path d="m435 26c8 0 14 2 19 7c4 5 7 11 7 18c0 0 0 435 0 435c0 0-103 0-103 0c0 0 0-435 0-435c0-17 7-25 21-25c0 0 56 0 56 0m-153 153c7 0 13 3 18 8c5 5 7 11 7 18c0 0 0 281 0 281c0 0-102 0-102 0c0 0 0-281 0-281c0-17 7-26 20-26c0 0 57 0 57 0m-154 154c8 0 14 2 18 7c5 6 8 12 8 18c0 0 0 128 0 128c0 0-103 0-103 0c0 0 0-128 0-128c0-17 7-25 21-25c0 0 56 0 56 0"/>
    </symbol>
  
    <symbol id="icon-torsos-all" viewBox="0 0 512 512">
      <path d="m492 295l-83-40c20-12 33-36 33-63c0-40-28-72-62-72c-12 0-23 4-32 11c6 14 9 29 9 46c0 24-7 48-20 67c4 5 9 9 15 12l0 0l53 25c15 8 25 24 25 41l0 70l57 0c7 0 14-7 14-16l0-66c0-7-4-13-9-15z m-330-40c4-3 8-6 12-10c-13-19-21-43-21-68c0-17 4-33 10-47c-10-6-20-10-31-10c-34 0-62 32-62 72c0 28 14 52 34 64l-84 39c-5 2-9 8-9 15l0 66c0 9 7 16 14 16l55 0l0-70c0-17 10-34 26-41z m232 49l-72-34l-31-15c14-8 25-21 32-37c5-12 9-26 9-41c0-9-2-17-4-24c-9-38-38-65-73-65c-34 0-63 26-73 63c-2 8-3 17-3 26c0 16 3 31 10 44c7 14 18 27 31 35l-29 13l-75 35c-6 3-10 10-10 18l0 82c0 11 7 20 17 20l264 0c10 0 18-9 18-20l0-82c0-8-5-15-11-18z"/>
    </symbol>
  
    <symbol id="icon-sync" viewBox="0 0 512 512">
      <path d="m392 237c6 41-7 84-39 115-47 47-119 52-173 17l38-36-138-19 19 134 42-40c76 55 183 50 251-18 40-39 58-91 56-142z m-233-77c47-46 119-52 173-17l-38 36 138 19-19-134-42 40c-76-55-183-50-251 18-40 39-58 91-56 142l56 11c-6-41 7-84 39-115z"/>
    </symbol>
  
    <symbol id="icon-signal" viewBox="0 0 512 512">
      <path d="m73 411l0 55c0 3-1 5-2 7c-2 2-4 2-7 2l-55 0c-3 0-5 0-6-2c-2-2-3-4-3-7l0-55c0-2 1-4 3-6c1-2 3-3 6-3l55 0c3 0 5 1 7 3c1 2 2 4 2 6z m110-36l0 91c0 3-1 5-3 7c-1 2-4 2-6 2l-55 0c-3 0-5 0-7-2c-1-2-2-4-2-7l0-91c0-3 1-5 2-7c2-1 4-2 7-2l55 0c2 0 5 1 6 2c2 2 3 4 3 7z m110-73l0 164c0 3-1 5-3 7c-2 2-4 2-7 2l-54 0c-3 0-5 0-7-2c-2-2-3-4-3-7l0-164c0-3 1-5 3-7c2-2 4-2 7-2l54 0c3 0 5 0 7 2c2 2 3 4 3 7z m109-110l0 274c0 3-1 5-2 7c-2 2-4 2-7 2l-55 0c-2 0-5 0-6-2c-2-2-3-4-3-7l0-274c0-3 1-5 3-7c1-1 4-2 6-2l55 0c3 0 5 1 7 2c1 2 2 4 2 7z m110-146l0 420c0 3-1 5-3 7c-1 2-3 2-6 2l-55 0c-3 0-5 0-7-2c-1-2-2-4-2-7l0-420c0-3 1-5 2-7c2-2 4-2 7-2l55 0c3 0 5 0 6 2c2 2 3 4 3 7z"/>
    </symbol>
  
    <symbol id="icon-hand-block" viewBox="0 0 512 512">
      <path d="m479 276c17 17 19 42 2 59c0 0-110 118-144 139c-32 24-73 38-113 38c-63 0-117-41-135-97l0-1c0-1-1-3-1-4l-66-216c-6-17 2-36 19-42c17-6 35 3 41 20l38 102c2 4 3 1 3-2l-26-184c-3-17 9-35 26-38c17-3 34 10 37 27l29 157c0 3 2 2 2 0l1-202c0-18 14-32 32-32c18 0 32 14 32 32l9 200c0 5 3 5 4 1l27-154c2-18 18-31 36-29c18 2 29 19 27 37l-24 196c-2 13-4 34 2 41c9 10 24 10 36-2l48-48c17-17 41-15 58 2z"/>
    </symbol>
  
    <symbol id="icon-files" viewBox="0 0 512 512">
      <path d="m485 110c7 0 14 2 19 8c5 5 8 12 8 19l0 348c0 7-3 14-8 19c-5 5-12 8-19 8l-275 0c-7 0-14-3-19-8c-5-5-8-12-8-19l0-83l-156 0c-7 0-14-2-19-8c-5-5-8-12-8-19l0-192c0-8 2-16 6-25c4-9 8-17 13-22l117-117c5-5 13-9 22-13c9-4 17-6 25-6l119 0c7 0 14 3 19 8c5 5 8 12 8 19l0 94c13-7 25-11 37-11z m-156 61l-85 85l85 0z m-183-110l-85 85l85 0z m56 185l91-91l0-118l-110 0l0 118c0 8-3 15-8 20c-5 5-12 8-20 8l-118 0l0 183l146 0l0-73c0-8 2-16 6-26c3-9 8-16 13-21z m273 229l0-329l-109 0l0 119c0 8-3 14-8 20c-6 5-12 8-20 8l-119 0l0 182z"/>
    </symbol>
  
    <symbol id="icon-mail" viewBox="0 0 512 512">
      <path d="m41 135c-11-6-16-13-14-20c0-5 5-7 13-7c0 0 433 0 433 0c13 0 16 5 10 16c-2 5-6 8-12 11c-5 2-38 20-98 52c-61 33-92 50-93 51c-6 3-14 5-24 5c-10 0-17-2-24-5c-1-1-32-18-93-51c-60-32-93-50-98-52m435 51c7-3 10-1 10 5c0 0 0 189 0 189c0 5-2 11-8 16c-6 6-12 8-17 8c0 0-410 0-410 0c-5 0-11-2-17-8c-5-5-8-11-8-16c0 0 0-189 0-189c0-6 3-8 10-5c0 0 196 103 196 103c7 3 14 5 24 5c10 0 17-2 24-5c0 0 196-103 196-103"/>
    </symbol>
  
    <symbol id="icon-gears-setting" viewBox="0 0 512 512">
      <path d="m239 256c0-19-7-35-20-48c-13-14-29-20-48-20c-19 0-35 6-49 20c-13 13-20 29-20 48c0 19 7 35 20 48c14 14 30 20 49 20c19 0 35-6 48-20c13-13 20-29 20-48z m205 137c0-10-4-18-10-24c-7-7-15-11-24-11c-10 0-18 4-24 11c-7 6-11 14-11 24c0 9 4 17 10 24c7 6 15 10 25 10c9 0 17-4 24-10c6-7 10-15 10-24z m0-274c0-9-4-17-10-24c-7-6-15-10-24-10c-10 0-18 4-24 10c-7 7-11 15-11 24c0 10 4 18 10 25c7 6 15 10 25 10c9 0 17-4 24-10c6-7 10-15 10-25z m-103 113l0 49c0 2 0 4-2 5c-1 2-2 3-4 3l-41 6c-2 7-5 13-9 21c6 8 14 18 24 30c2 2 2 4 2 6c0 2 0 4-2 5c-4 5-11 13-22 24c-10 10-17 16-21 16c-2 0-3-1-5-2l-31-24c-6 3-13 6-20 8c-2 19-4 33-7 41c-1 5-3 7-8 7l-49 0c-2 0-4-1-5-2c-2-2-3-3-3-5l-6-41c-6-2-13-4-20-8l-32 24c-1 1-3 2-5 2c-2 0-4-1-6-3c-25-23-38-37-38-42c0-2 1-4 2-5c2-3 5-8 11-14c5-7 9-13 12-17c-4-8-7-15-9-22l-41-6c-1 0-3-1-4-3c-1-1-2-3-2-5l0-49c0-2 1-4 2-5c1-2 3-3 4-3l41-6c2-7 5-13 9-21c-6-8-14-18-24-30c-1-2-2-4-2-6c0-2 1-4 2-5c4-5 11-13 22-24c11-10 18-16 21-16c2 0 4 1 6 2l30 24c6-3 13-6 21-8c2-19 4-33 6-41c1-5 4-7 8-7l49 0c2 0 4 1 6 2c1 2 2 3 2 5l7 41c6 2 12 4 20 8l31-24c1-1 3-2 5-2c2 0 4 1 6 3c26 23 38 37 38 42c0 2 0 4-1 5c-3 3-6 8-12 15c-5 6-9 12-12 16c4 8 7 16 9 22l41 6c2 0 3 1 4 3c2 1 2 3 2 5z m171 142l0 37c0 3-13 6-40 8c-2 5-5 10-8 14c9 20 14 33 14 37c0 1 0 1-1 2c-22 13-33 19-33 19c-2 0-6-4-13-13c-6-8-11-14-13-18c-4 1-7 1-8 1c-2 0-5 0-8-1c-3 4-8 10-14 18c-7 9-11 13-13 13c0 0-11-6-33-19c0-1-1-1-1-2c0-4 5-17 14-37c-3-4-6-9-8-14c-27-2-40-5-40-8l0-37c0-3 13-6 40-8c2-6 5-10 8-14c-9-20-14-33-14-37c0-1 1-1 1-2c1 0 4-2 10-5c5-3 10-6 15-9c5-3 8-5 8-5c2 0 6 5 13 13c6 8 11 14 14 18c3-1 6-1 8-1c1 0 4 0 8 1c9-13 17-23 24-30l2-1c0 0 11 7 33 19c1 1 1 1 1 2c0 4-5 17-14 37c3 4 6 8 8 14c27 2 40 5 40 8z m0-273l0 37c0 3-13 6-40 8c-2 5-5 10-8 14c9 20 14 33 14 37c0 1 0 1-1 2c-22 13-33 19-33 19c-2 0-6-4-13-13c-6-8-11-14-13-18c-4 1-7 1-8 1c-2 0-5 0-8-1c-3 4-8 10-14 18c-7 9-11 13-13 13c0 0-11-6-33-19c0-1-1-1-1-2c0-4 5-17 14-37c-3-4-6-9-8-14c-27-2-40-5-40-8l0-37c0-3 13-6 40-8c2-6 5-10 8-14c-9-20-14-33-14-37c0-1 1-1 1-2c1 0 4-2 10-5c5-4 10-7 15-9c5-3 8-5 8-5c2 0 6 4 13 13c6 8 11 14 14 18c3-1 6-1 8-1c1 0 4 0 8 1c9-13 17-23 24-30l2-1c0 0 11 7 33 19c1 1 1 1 1 2c0 4-5 17-14 37c3 4 6 8 8 14c27 2 40 5 40 8z"/>
    </symbol>
  
    <symbol id="icon-info-circled" viewBox="0 0 512 512">
      <path d="m253 20c65 0 120 22 167 67c46 45 70 100 72 165c0 65-22 121-68 167c-45 47-100 71-165 73c-65 0-121-22-167-68c-47-45-71-100-72-165c-1-65 21-121 67-167c46-47 101-71 166-72m27 78c-15 0-26 4-34 13c-8 8-12 16-12 25c0 10 2 17 8 23c6 5 14 8 25 8c13 0 24-4 31-11c8-8 12-17 12-28c0-20-10-30-30-30m-62 304c10 0 25-4 43-13c19-9 37-22 54-40c0 0-9-12-9-12c-16 12-28 18-37 18c-4 0-5-6-2-19c0 0 22-82 22-82c9-33 5-49-11-49c-11 0-26 5-46 15c-20 10-40 22-59 38c0 0 8 13 8 13c18-11 31-17 38-17c4 0 4 6 0 17c0 0-18 78-18 78c-9 36-3 53 17 53"/>
    </symbol>
  
</svg>
