<svg xmlns="http://www.w3.org/2000/svg" style="display: none;">
  
    <symbol id="icon-call" viewBox="0 0 512 512">
      <path d="m512 283c0-36-23-67-58-84 0 0 0 0 0 0 0-109-89-198-198-198-109 0-197 89-198 198-34 16-58 48-58 84 0 53 52 96 115 96l0-193c0 0 0 0 0 0 7-72 68-129 141-129 74 0 135 57 141 129 0 0 0 0 0 0l0 193c-8 23-28 61-79 73-7-13-21-23-37-23-22 0-41 19-41 41 0 23 19 41 41 41 19 0 35-13 40-31 45-9 71-35 86-57 11-18 17-35 19-47 50-11 86-49 86-93z"/>
    </symbol>
  
    <symbol id="icon-chat" viewBox="0 0 512 512">
      <path d="m227 248l-19 0c29-18 48-49 48-85 0-55-44-100-99-100-55 0-99 45-99 100 0 36 19 67 48 85l-20 0c-47 0-86 38-86 86l0 90c0 14 11 25 25 25l264 0c14 0 25-11 25-25l0-90c0-48-39-86-87-86z m-70-136c28 0 50 23 50 51 0 27-22 50-50 50-28 0-50-23-50-50 0-28 22-51 50-51z m108 288l-216 0 0-66c0-21 17-37 37-37l141 0c21 0 38 16 38 37z m185-195l-25 0c26-11 44-36 44-66 0-39-32-71-71-71-40 0-72 32-72 71 0 30 19 55 45 66l-26 0c-25 0-47 15-56 37 10 6 18 14 26 24 0-17 14-30 30-30l105 0c17 0 31 14 31 31l0 51-144 0c1 6 1 11 1 16l0 16 158 0c9 0 16-7 16-16l0-67c0-34-28-62-62-62z m-93-66c0-22 19-40 41-40 22 0 40 18 40 40 0 22-18 40-40 40-22 0-41-18-41-40z"/>
    </symbol>
  
    <symbol id="icon-email" viewBox="0 0 512 512">
      <path d="m487 62l-462 0c-14 0-25 11-25 25l0 338c0 14 11 25 25 25l462 0c14 0 25-11 25-25l0-338c0-14-11-25-25-25z m-140 190l-16 12c-2 1-3 2-4 3l121 133-384 0 121-133c-1-1-2-2-4-3l-16-12-116 127 0-243 147 108c17 13 38 19 60 19 22 0 43-6 60-19l147-108 0 243z m-247-140l312 0-126 93c-16 12-44 12-60 0z"/>
    </symbol>
  
    <symbol id="icon-square-support" viewBox="0 0 512 512">
      <path d="m251 90c-90 0-163 73-163 163 0 90 73 163 163 163 90 0 163-73 163-163 0-90-73-163-163-163z m-22 80c1-2 2-4 3-6 4-4 9-8 14-10 6-2 12-4 18-4 1 0 1 0 2 0 1 0 1 0 2 0 3 0 6 0 9 0 2 1 5 1 8 2 0 0 1 1 2 1 1 0 1 0 2 1 5 2 10 5 14 9 5 4 7 9 7 15 0 1 0 2 0 3 0 0 0 1-1 2-1 5-4 9-8 12-4 4-8 6-13 7-1 1-2 1-3 1 0 0-1 0-2 1-2 0-4 0-6 0-2 1-4 1-7 1-5 0-11-1-16-2-6-2-11-4-15-7-3-3-6-6-8-9-2-4-3-7-3-11 0-2 1-4 1-6z m97 120c-1 1-1 2-2 3-4 9-9 17-13 24-5 8-11 15-18 21-6 5-14 10-22 13-9 3-18 5-27 5 0 0-1 0-2 0 0 0-1 0-1 0-4 0-8 0-12-1-3 0-7-1-11-2-9-4-16-9-20-16-4-7-6-15-6-23 0-3 0-6 0-9 1-2 1-5 2-9 0-1 1-3 1-4 1-1 1-3 2-4 4-12 8-24 12-35 3-12 7-24 12-35 6 0 12 0 18 0 6 0 13 0 19 0 6 0 13 0 19 0 6 0 12 0 18 0-1 4-3 9-5 14-1 4-3 9-4 14-4 9-7 18-10 27-3 10-6 19-9 28-1 2-2 4-2 6-1 2-1 4-1 5 0 2 1 3 2 4 1 1 3 1 6 1 2 0 4-1 7-2 3-2 6-4 10-7 4-5 8-10 11-15 3-5 6-10 8-16 1 1 2 1 3 2 2 0 3 1 4 1 2 1 4 2 6 3 2 1 4 2 7 3-1 1-1 3-2 4z m156-290l-452 0c-17 0-30 13-30 30l0 452c0 17 13 30 30 30l452 0c17 0 30-13 30-30l0-452c0-17-13-30-30-30z m-231 463c-116 0-210-94-210-210 0-116 94-210 210-210 116 0 211 94 211 210 0 116-95 210-211 210z"/>
    </symbol>
  
    <symbol id="icon-ticket" viewBox="0 0 512 512">
      <path d="m506 177l-40-39c-5-6-12-7-19-5-5 1-11 2-16 2-14 0-27-5-36-14-13-14-15-36-11-51 2-7 0-15-5-20l-44-44c-8-8-21-8-29 0l-300 300c-8 8-8 21 0 29l42 42c6 5 14 7 22 4 5-2 11-3 16-3 11 0 22 5 33 15 15 15 19 32 12 49-3 8-1 16 4 22l42 42c4 4 9 6 15 6 5 0 10-2 14-6l300-300c8-8 8-21 0-29z m-314 286l-19-19c6-28-3-56-26-79-18-18-39-28-61-28-6 0-12 1-18 2l-19-19 187-187 143 143z m218-218l-143-143 53-53 23 22c-5 29 4 59 24 79 16 16 39 25 64 25 5 0 10 0 15-1l17 18z"/>
    </symbol>
  
    <symbol id="icon-faq" viewBox="0 0 512 512">
      <path d="m256 0c-141 0-256 115-256 256 0 141 115 256 256 256 141 0 256-115 256-256 0-141-115-256-256-256z m0 455c-110 0-199-89-199-199 0-110 89-199 199-199 110 0 199 89 199 199 0 110-89 199-199 199z m69-335c-18-16-41-25-70-25-27 0-50 8-67 23-17 15-27 37-30 64-1 4 0 7 2 10 3 3 6 5 9 5l33 4c7 1 14-4 15-11 2-15 7-26 14-32 6-6 14-9 24-9 11 0 19 3 26 10 7 7 11 14 11 23 0 4-1 8-3 12-2 2-6 8-19 20-12 10-20 18-24 23-7 8-12 17-15 25-4 10-6 23-6 37 0 2 0 7 0 12 0 7 6 15 13 15l31 0c7 0 13-8 14-16 0-14 1-22 2-25 1-4 2-8 5-11 1-2 5-7 18-18 17-15 28-27 34-38 6-12 10-25 10-38 0-24-10-44-27-60z m-32 257c0 20-16 36-37 36-20 0-36-16-36-36 0-21 16-37 36-37 21 0 37 16 37 37z"/>
    </symbol>
  
</svg>
