<svg xmlns="http://www.w3.org/2000/svg" style="display: none;">
  
    <symbol id="icon-facebook" viewBox="0 0 512 512">
      <path d="m256 0c-141 0-256 115-256 256 0 141 115 256 256 256l0 0 0-190-64 0 0-75 64 0 0-55c0-64 39-99 96-99 28 0 51 2 58 3l0 67-40 0c-31 0-37 15-37 36l0 48 74 0-9 75-65 0 0 178c104-33 179-130 179-244 0-141-115-256-256-256z"/>
    </symbol>
  
    <symbol id="icon-instagram" viewBox="0 0 512 512">
      <path d="m343 119l-174 0c-27 0-49 22-49 50l0 25 89 0c29-20 69-20 98 0l85 0 0-25c0-28-22-50-49-50z m-56 146c0-16-13-29-29-29-16 0-30 13-30 29 0 17 14 30 30 30 16 0 29-13 29-30z m57 0c0 48-38 87-86 87-48 0-87-39-87-87 0-10 2-20 6-30l-57 0 0 108c0 28 22 50 49 50l174 0c27 0 49-22 49-50l0-108-53 0c4 10 5 20 5 30z m-88-265c-141 0-256 115-256 256 0 141 115 256 256 256 141 0 256-115 256-256 0-141-115-256-256-256z m178 343c0 50-41 91-91 91l-174 0c-50 0-91-41-91-91l0-174c0-50 41-91 91-91l174 0c50 0 91 41 91 91l0 174z"/>
    </symbol>
  
    <symbol id="icon-linkedin" viewBox="0 0 512 512">
      <path d="m256 0c-141 0-256 115-256 256 0 141 115 256 256 256 141 0 256-115 256-256 0-141-115-256-256-256z m-88 415l-66 0 0-213 66 0z m-33-241c-22 0-39-17-39-38 0-22 17-39 39-39 21 0 38 17 38 39 0 21-17 38-38 38z m280 119l0 122-66 0 0-111c0 0 3-48-33-48-43 0-41 48-41 48l0 111-66 0 0-213 63 0 0 29c0 0 27-51 99-29 51 16 44 91 44 91z"/>
    </symbol>
  
    <symbol id="icon-pinterest" viewBox="0 0 512 512">
      <path d="m512 257c0 0 0-1 0-1 0-2 0-3 0-4 0-1 0-1 0-1 0-10-1-20-2-29 0 0 0 0 0 0-1-2-1-4-1-6 0-1-1-2-1-3 0-1 0-2 0-3-10-54-35-100-67-132-16-16-35-31-57-43 0-1-1-1-1-2-1 0-1 0-1 0-37-21-80-33-126-33-1 0-1 0-2 0-1 0-2 0-3 0-15 0-31 2-46 5-34 7-65 20-93 39-13 9-25 19-35 29-30 29-56 69-69 119 0 0 0 0 0 0 0 1 0 1 0 2-1 2-1 4-2 5 0 1 0 1 0 1-4 17-6 34-6 52 0 1 0 1 0 1 0 1 0 2 0 3 0 1 0 2 0 2 0 6 0 13 1 19 4 61 28 111 65 150 47 52 115 85 190 85 1 0 1 0 2 0 1 0 3 0 4 0 0 0 1 0 1 0 58-1 111-22 148-51 54-41 95-107 100-188 1-3 1-6 1-10 0 0 0-1 0-2 0-1 0-3 0-4z m-327 7c-4-41 15-86 57-76 11 2 17 11 21 20 15 44-30 91-21 128 4 15 24 33 54 28 16-2 31-15 39-26 22-26 37-81 30-130-10-70-106-98-171-63-36 19-69 68-61 123 2 19 19 30 20 48 1 11-2 13-11 28-38-11-59-52-58-99 2-87 78-150 158-156 96-7 176 47 184 132 6 69-25 140-74 169-13 8-35 21-71 17-15-1-29-9-39-17-6-4-13-17-17-11-7 37-19 78-33 104-2 4-7 12-7 16-11-3-20-6-30-11-1-60 16-104 28-153 3-14 9-31 9-41 0-9-6-19-7-30z"/>
    </symbol>
  
    <symbol id="icon-twitter" viewBox="0 0 512 512">
      <path d="m256 0c-141 0-256 115-256 256 0 141 115 256 256 256 141 0 256-115 256-256 0-141-115-256-256-256z m143 192c0 3 0 6 0 9 0 98-74 210-210 210-41 0-80-12-113-33 6 1 12 1 18 1 34 0 66-12 91-31-32-1-59-22-69-52 5 1 10 2 14 2 7 0 14-1 20-3-34-7-60-37-60-72 0-1 0-1 0-1 10 5 22 9 34 9-20-13-33-36-33-61 0-14 4-27 10-38 36 45 91 74 152 78-1-6-2-11-2-17 0-41 33-74 74-74 21 0 41 9 54 23 17-3 33-9 47-18-5 18-17 32-32 41 15-2 29-6 42-11-10 14-22 27-37 38z"/>
    </symbol>
  
    <symbol id="icon-youtube" viewBox="0 0 512 512">
      <path d="m252 192c6 0 9-4 9-14l0-43c0-9-3-14-9-14-6 0-9 5-10 14l0 43c0 9 3 14 10 14z m49 106c-7 0-14 4-20 12l0-46-19 0 0 140 19 0 0-10c7 8 13 12 20 12 7 0 12-4 15-12 1-5 2-12 2-21l0-42c0-10-1-17-2-21-3-8-8-12-15-12z m-2 76c0 10-3 14-8 14-3 0-7-1-10-4l0-64c3-3 7-5 10-5 5 0 8 5 8 15z m-72 5c-4 6-8 9-12 9-3 0-4-1-4-4-1-1-1-3-1-7l0-77-19 0 0 82c0 8 1 13 2 16 2 5 6 8 12 8 7 0 14-5 22-13l0 11 19 0 0-104-19 0 0 79z m29-379c-141 0-256 115-256 256 0 141 115 256 256 256 141 0 256-115 256-256 0-141-115-256-256-256z m40 105l0 0 0-2 19 0 0 77c0 5 0 7 0 8 0 3 2 4 4 4 4 0 8-3 12-9l0-78 0 0 0-2 20 0 0 105 0 0 0 2-20 0 0-11c-7 9-14 13-21 13-7 0-11-3-13-8-1-3-1-8-1-16l0-83z m-73 34c0 0 0 0 0-1l0-1c0-11 2-20 6-25 6-7 13-11 23-11 9 0 17 4 22 11 4 5 6 14 6 25l0 37c0 0 0 1 0 1l0 1c0 12-2 20-6 25-5 7-13 11-22 11-10 0-17-4-23-11-4-5-6-13-6-25z m-73-72l22 0 15 55 15-55 21 0-1 2 1 0-25 84 0 55 0 0 0 2-22 0 0-57c-2-10-6-25-13-45-4-13-9-26-13-39l1 0c-1-1-1-2-1-2z m257 343c-4 17-17 29-34 31-39 4-78 5-117 4-39 1-78 0-117-4-17-2-30-14-34-31-6-23-6-49-6-74 0-24 0-50 6-74 4-16 17-29 34-30 39-5 78-5 117-5 39 0 78 0 117 5 17 1 30 14 34 30 6 24 6 50 6 74 0 25 0 51-6 74z m-284-126l22 0 0 120 21 0 0-120 23 0 0-20-66 0z m238 14c-10 0-17 4-23 11-4 5-5 14-5 25l0 36c0 11 2 20 6 25 5 7 13 11 23 11 9 0 17-4 22-12 3-3 4-7 5-11 0-2 0-6 0-12l0-3-19 0c0 8 0 12 0 13-2 5-4 7-9 7-6 0-10-4-10-14l0-19 38 0 0-21c0-11-2-20-6-25-5-7-12-11-22-11z m9 42l-19 0 0-10c0-10 4-15 10-15 6 0 9 5 9 15l0 10z"/>
    </symbol>
  
</svg>
